<svg xmlns="http://www.w3.org/2000/svg" viewBox="0 0 24 24" fill="currentColor">
  <path d="M12 0C5.37 0 0 5.37 0 12c0 5.3 3.438 9.8 8.207 11.387.6.113.793-.263.793-.587 0-.287-.012-1.243-.018-2.257-3.338.725-4.042-1.613-4.042-1.613-.546-1.387-1.333-1.757-1.333-1.757-1.09-.744.082-.729.082-.729 1.204.087 1.837 1.237 1.837 1.237 1.07 1.833 2.807 1.303 3.492.996.108-.775.418-1.303.762-1.603-2.665-.303-5.467-1.333-5.467-5.93 0-1.31.468-2.382 1.237-3.222-.123-.303-.536-1.523.117-3.176 0 0 1.008-.322 3.3 1.23.957-.267 1.983-.4 3.003-.404 1.02.004 2.047.137 3.006.404 2.29-1.553 3.296-1.23 3.296-1.23.655 1.653.242 2.873.12 3.176.77.84 1.236 1.912 1.236 3.222 0 4.61-2.807 5.624-5.48 5.92.43.37.823 1.096.823 2.21 0 1.596-.014 2.884-.014 3.276 0 .326.19.704.8.584C20.565 21.796 24 17.297 24 12c0-6.63-5.37-12-12-12z"/>
</svg>